<?xml version="1.0" standalone="no"?>
<!DOCTYPE svg PUBLIC "-//W3C//DTD SVG 20010904//EN"
 "http://www.w3.org/TR/2001/REC-SVG-20010904/DTD/svg10.dtd">
<svg version="1.0" xmlns="http://www.w3.org/2000/svg"
 width="160.000000pt" height="160.000000pt" viewBox="0 0 160.000000 160.000000"
 preserveAspectRatio="xMidYMid meet">

<g transform="translate(0.000000,160.000000) scale(0.100000,-0.100000)"
fill="#000000" stroke="none">
<path d="M1090 1264 c-126 -41 -414 -93 -500 -90 -25 1 -54 6 -65 10 -42 17
65 -51 179 -115 l118 -66 62 13 c199 41 450 44 559 7 l57 -20 0 129 0 128 -27
0 c-16 0 -46 7 -68 15 -67 24 -226 19 -315 -11z"/>
<path d="M100 785 l0 -443 48 -16 c26 -8 85 -20 131 -26 l84 -10 51 44 c53 45
170 151 301 270 76 69 76 69 168 87 178 33 304 42 420 30 59 -7 125 -18 148
-26 23 -8 43 -15 46 -15 2 0 2 57 1 127 l-3 127 -50 13 c-109 28 -215 34 -351
18 -71 -9 -168 -23 -215 -32 l-87 -16 -91 51 c-50 29 -143 86 -207 127 -107
70 -121 76 -178 80 -34 2 -97 15 -139 28 l-77 25 0 -443z m372 63 c70 -46 127
-85 127 -88 0 -8 -187 -162 -252 -208 -68 -48 -171 -107 -202 -116 -18 -5 -20
-1 -19 31 1 35 5 39 65 71 121 65 306 208 281 218 -27 12 -201 152 -270 219
-67 63 -74 74 -75 111 l-2 41 110 -98 c61 -54 167 -136 237 -181z"/>
<path d="M1050 639 c-36 -4 -104 -15 -152 -25 l-86 -16 -104 -97 c-57 -53
-128 -116 -158 -140 -30 -25 -59 -49 -65 -54 -15 -14 98 0 300 38 333 62 485
68 643 27 l72 -18 0 126 0 127 -88 21 c-94 23 -233 28 -362 11z"/>
<path d="M418 303 c12 -2 30 -2 40 0 9 3 -1 5 -23 4 -22 0 -30 -2 -17 -4z"/>
</g>
</svg>
